<mxfile host="app.diagrams.net" agent="Mozilla/5.0 (Windows NT 10.0; Win64; x64) AppleWebKit/537.36 (KHTML, like Gecko) Chrome/134.0.0.0 Safari/537.36" version="26.1.0">
  <diagram name="Página-1" id="vb5BsKDFLn6NXj41lYb_">
    <mxGraphModel dx="794" dy="470" grid="0" gridSize="10" guides="1" tooltips="1" connect="1" arrows="1" fold="1" page="0" pageScale="1" pageWidth="827" pageHeight="1169" math="0" shadow="0">
      <root>
        <mxCell id="0" />
        <mxCell id="1" parent="0" />
        <mxCell id="o1Pg8Bay_mtpyTVh35mw-4" value="" style="edgeStyle=none;curved=1;rounded=0;orthogonalLoop=1;jettySize=auto;html=1;fontSize=12;startSize=8;endSize=8;" edge="1" parent="1" source="o1Pg8Bay_mtpyTVh35mw-2" target="o1Pg8Bay_mtpyTVh35mw-3">
          <mxGeometry relative="1" as="geometry" />
        </mxCell>
        <mxCell id="o1Pg8Bay_mtpyTVh35mw-2" value="Início" style="ellipse;whiteSpace=wrap;html=1;fillColor=#dae8fc;strokeColor=#6c8ebf;" vertex="1" parent="1">
          <mxGeometry x="115" y="17" width="120" height="80" as="geometry" />
        </mxCell>
        <mxCell id="o1Pg8Bay_mtpyTVh35mw-6" value="" style="edgeStyle=none;curved=1;rounded=0;orthogonalLoop=1;jettySize=auto;html=1;fontSize=12;startSize=8;endSize=8;" edge="1" parent="1" source="o1Pg8Bay_mtpyTVh35mw-3" target="o1Pg8Bay_mtpyTVh35mw-5">
          <mxGeometry relative="1" as="geometry" />
        </mxCell>
        <mxCell id="o1Pg8Bay_mtpyTVh35mw-3" value="cotacao, valorreais" style="shape=parallelogram;perimeter=parallelogramPerimeter;whiteSpace=wrap;html=1;fixedSize=1;fillColor=#dae8fc;strokeColor=#6c8ebf;" vertex="1" parent="1">
          <mxGeometry x="106" y="227" width="129" height="60" as="geometry" />
        </mxCell>
        <mxCell id="o1Pg8Bay_mtpyTVh35mw-8" value="" style="edgeStyle=none;curved=1;rounded=0;orthogonalLoop=1;jettySize=auto;html=1;fontSize=12;startSize=8;endSize=8;" edge="1" parent="1" source="o1Pg8Bay_mtpyTVh35mw-5" target="o1Pg8Bay_mtpyTVh35mw-7">
          <mxGeometry relative="1" as="geometry" />
        </mxCell>
        <mxCell id="o1Pg8Bay_mtpyTVh35mw-5" value="resultado = (valorreais/cotacao)&amp;nbsp;" style="whiteSpace=wrap;html=1;fillColor=#dae8fc;strokeColor=#6c8ebf;" vertex="1" parent="1">
          <mxGeometry x="115" y="407" width="120" height="60" as="geometry" />
        </mxCell>
        <mxCell id="o1Pg8Bay_mtpyTVh35mw-7" value="resultado" style="shape=document;whiteSpace=wrap;html=1;boundedLbl=1;fillColor=#dae8fc;strokeColor=#6c8ebf;" vertex="1" parent="1">
          <mxGeometry x="115" y="577" width="120" height="80" as="geometry" />
        </mxCell>
      </root>
    </mxGraphModel>
  </diagram>
</mxfile>
